<svg viewBox="0 0 141 214" fill="none" xmlns="http://www.w3.org/2000/svg">
<g clip-path="url(#clip0_34_103)">
<path d="M34 96.9262L34 0" stroke="white" stroke-opacity="1" stroke-miterlimit="10"/>
<path d="M32.4273 97.051L17.2627 1.32031" stroke="white" stroke-opacity="1" stroke-miterlimit="10"/>
<path d="M30.8885 97.4176L0.936523 5.23438" stroke="white" stroke-opacity="1" stroke-miterlimit="10"/>
<path d="M29.4287 98.0265L-14.5757 11.6641" stroke="white" stroke-opacity="1" stroke-miterlimit="10"/>
<path d="M28.0813 98.8526L-28.8926 20.4375" stroke="white" stroke-opacity="1" stroke-miterlimit="10"/>
<path d="M26.8756 99.8732L-41.6616 31.3359" stroke="white" stroke-opacity="1" stroke-miterlimit="10"/>
<path d="M25.8516 101.083L-52.5635 44.1094" stroke="white" stroke-opacity="1" stroke-miterlimit="10"/>
<path d="M25.0235 102.426L-61.3389 58.4219" stroke="white" stroke-opacity="1" stroke-miterlimit="10"/>
<path d="M24.4211 103.889L-67.7622 73.9375" stroke="white" stroke-opacity="1" stroke-miterlimit="10"/>
<path d="M24.0485 105.43L-71.6821 90.2656" stroke="white" stroke-opacity="1" stroke-miterlimit="10"/>
<path d="M23.9262 107L-73 107" stroke="white" stroke-opacity="1" stroke-miterlimit="10"/>
<path d="M24.0485 108.578L-71.6821 123.738" stroke="white" stroke-opacity="1" stroke-miterlimit="10"/>
<path d="M24.4211 110.109L-67.7622 140.061" stroke="white" stroke-opacity="1" stroke-miterlimit="10"/>
<path d="M25.0235 111.578L-61.3389 155.578" stroke="white" stroke-opacity="1" stroke-miterlimit="10"/>
<path d="M25.8516 112.922L-52.5635 169.891" stroke="white" stroke-opacity="1" stroke-miterlimit="10"/>
<path d="M26.8756 114.125L-41.6616 182.662" stroke="white" stroke-opacity="1" stroke-miterlimit="10"/>
<path d="M28.0813 115.148L-28.8926 193.568" stroke="white" stroke-opacity="1" stroke-miterlimit="10"/>
<path d="M29.4287 115.977L-14.5757 202.339" stroke="white" stroke-opacity="1" stroke-miterlimit="10"/>
<path d="M30.8885 116.578L0.93652 208.761" stroke="white" stroke-opacity="1" stroke-miterlimit="10"/>
<path d="M32.4273 116.953L17.2627 212.684" stroke="white" stroke-opacity="1" stroke-miterlimit="10"/>
<path d="M34 117.07L34 213.996" stroke="white" stroke-opacity="1" stroke-miterlimit="10"/>
<path d="M35.5776 116.953L50.7373 212.684" stroke="white" stroke-opacity="1" stroke-miterlimit="10"/>
<path d="M37.1113 116.578L67.0633 208.761" stroke="white" stroke-opacity="1" stroke-miterlimit="10"/>
<path d="M38.5762 115.977L82.5756 202.339" stroke="white" stroke-opacity="1" stroke-miterlimit="10"/>
<path d="M39.9238 115.148L96.8928 193.568" stroke="white" stroke-opacity="1" stroke-miterlimit="10"/>
<path d="M41.124 114.125L109.661 182.662" stroke="white" stroke-opacity="1" stroke-miterlimit="10"/>
<path d="M42.1484 112.922L120.568 169.891" stroke="white" stroke-opacity="1" stroke-miterlimit="10"/>
<path d="M42.9761 111.578L129.338 155.578" stroke="white" stroke-opacity="1" stroke-miterlimit="10"/>
<path d="M43.5791 110.109L135.762 140.061" stroke="white" stroke-opacity="1" stroke-miterlimit="10"/>
<path d="M43.9512 108.578L139.682 123.738" stroke="white" stroke-opacity="1" stroke-miterlimit="10"/>
<path d="M44.0737 107L141 107" stroke="white" stroke-opacity="1" stroke-miterlimit="10"/>
<path d="M43.9512 105.43L139.682 90.2656" stroke="white" stroke-opacity="1" stroke-miterlimit="10"/>
<path d="M43.5791 103.889L135.762 73.9375" stroke="white" stroke-opacity="1" stroke-miterlimit="10"/>
<path d="M42.9761 102.426L129.338 58.4219" stroke="white" stroke-opacity="1" stroke-miterlimit="10"/>
<path d="M42.1484 101.083L120.568 44.1094" stroke="white" stroke-opacity="1" stroke-miterlimit="10"/>
<path d="M41.124 99.8732L109.661 31.3359" stroke="white" stroke-opacity="1" stroke-miterlimit="10"/>
<path d="M39.9238 98.8526L96.8928 20.4375" stroke="white" stroke-opacity="1" stroke-miterlimit="10"/>
<path d="M38.5762 98.0265L82.5756 11.6641" stroke="white" stroke-opacity="1" stroke-miterlimit="10"/>
<path d="M37.1113 97.4176L67.0633 5.23438" stroke="white" stroke-opacity="1" stroke-miterlimit="10"/>
<path d="M35.5776 97.051L50.7374 1.32031" stroke="white" stroke-opacity="1" stroke-miterlimit="10"/>
</g>
<defs>
<clipPath id="clip0_34_103">
<rect width="214" height="214" fill="white" transform="translate(-73)"/>
</clipPath>
</defs>
</svg>