<svg width="28" height="37" viewBox="0 0 28 37" fill="none" xmlns="http://www.w3.org/2000/svg">
<path fill-rule="evenodd" clip-rule="evenodd" d="M14 3.08594C7.7868 3.08594 2.75 8.12273 2.75 14.3359C2.75 17.6668 4.19597 20.6583 6.49844 22.72L6.5057 22.7265C7.43346 23.5572 8.13825 24.1883 8.64212 24.6502C9.11649 25.0851 9.49229 25.4405 9.68921 25.6835L9.71061 25.71C10.0794 26.165 10.4007 26.5615 10.6127 27.0357C10.8246 27.5099 10.9056 28.0138 10.9986 28.5921L11.004 28.6257C11.0517 28.922 11.0708 29.2861 11.0784 29.7526H16.9216C16.9292 29.2861 16.9483 28.9221 16.996 28.6257L17.0014 28.5921C17.0944 28.0138 17.1754 27.5099 17.3873 27.0357C17.5993 26.5615 17.9206 26.165 18.2894 25.71L18.3108 25.6835C18.5077 25.4405 18.8835 25.0851 19.3579 24.6502C19.8618 24.1883 20.5666 23.5571 21.4944 22.7264L21.5016 22.72C23.804 20.6583 25.25 17.6668 25.25 14.3359C25.25 8.12273 20.2132 3.08594 14 3.08594ZM16.906 32.2526H11.094C11.0995 32.4263 11.1077 32.5781 11.1201 32.7147C11.1541 33.0899 11.2115 33.2262 11.2508 33.2943C11.3605 33.4843 11.5183 33.6421 11.7083 33.7518C11.7764 33.7911 11.9127 33.8485 12.2879 33.8825C12.6803 33.9181 13.1981 33.9193 14 33.9193C14.8019 33.9193 15.3197 33.9181 15.7121 33.8825C16.0873 33.8485 16.2236 33.7911 16.2917 33.7518C16.4817 33.6421 16.6395 33.4843 16.7492 33.2943C16.7885 33.2262 16.8459 33.0899 16.8799 32.7147C16.8923 32.5781 16.9005 32.4263 16.906 32.2526ZM0.25 14.3359C0.25 6.74202 6.40608 0.585938 14 0.585938C21.5939 0.585938 27.75 6.74202 27.75 14.3359C27.75 18.4072 25.979 22.0666 23.1693 24.5824C22.2328 25.421 21.539 26.0422 21.0473 26.493C20.8015 26.7184 20.6135 26.8944 20.4748 27.0296C20.4056 27.0969 20.3528 27.1502 20.3134 27.1915C20.2939 27.212 20.2792 27.2279 20.2685 27.2398C20.2576 27.252 20.2531 27.2576 20.2531 27.2575C19.8195 27.7926 19.7257 27.9306 19.6698 28.0557C19.6139 28.1808 19.5737 28.3428 19.4643 29.0228C19.4211 29.2912 19.4167 29.751 19.4167 31.0026V31.0563C19.4167 31.7893 19.4167 32.4215 19.3697 32.9404C19.32 33.489 19.2099 34.0322 18.9143 34.5443C18.5851 35.1143 18.1117 35.5877 17.5417 35.9169C17.0296 36.2125 16.4864 36.3226 15.9377 36.3723C15.4189 36.4193 14.7867 36.4193 14.0537 36.4193H13.9463C13.2133 36.4193 12.5811 36.4193 12.0623 36.3723C11.5136 36.3226 10.9704 36.2125 10.4583 35.9169C9.88826 35.5877 9.41487 35.1143 9.08574 34.5443C8.79012 34.0322 8.68003 33.489 8.6303 32.9404C8.58328 32.4215 8.5833 31.7893 8.58333 31.0563L8.58333 31.0026C8.58333 29.751 8.57892 29.2912 8.53573 29.0228C8.42633 28.3428 8.3861 28.1808 8.33021 28.0557C8.27432 27.9306 8.18047 27.7926 7.74686 27.2575C7.74653 27.2571 7.7419 27.2514 7.73147 27.2398C7.72082 27.2279 7.70614 27.212 7.68665 27.1915C7.64724 27.1502 7.59435 27.0969 7.52521 27.0296C7.38648 26.8944 7.19853 26.7184 6.95269 26.493C6.46101 26.0422 5.76723 25.421 4.83075 24.5824C2.02105 22.0666 0.25 18.4072 0.25 14.3359ZM10.4867 20.7539C11.0843 20.4083 11.8489 20.6125 12.1946 21.21C12.5567 21.836 13.2304 22.2526 14 22.2526C14.7696 22.2526 15.4433 21.836 15.8054 21.21C16.1511 20.6125 16.9157 20.4083 17.5133 20.7539C18.1109 21.0996 18.3151 21.8643 17.9694 22.4618C17.3806 23.4797 16.409 24.252 15.25 24.58V26.8359C15.25 27.5263 14.6904 28.0859 14 28.0859C13.3096 28.0859 12.75 27.5263 12.75 26.8359V24.58C11.591 24.252 10.6194 23.4797 10.0306 22.4618C9.68492 21.8643 9.88912 21.0996 10.4867 20.7539Z" fill="#96EFFF"/>
</svg>
