<svg viewBox="0 0 1512 1317" fill="none" xmlns="http://www.w3.org/2000/svg">
<path d="M-182.322 366.894C166.599 485.782 309.232 483.556 374.443 458.195C447.218 429.89 456.161 360.082 505.495 382.604C537.085 397.025 562.619 438.991 606.36 524.248C739.008 782.785 722.972 823.217 807.477 882.531C925.851 965.633 1039.12 943.677 1231.95 1051.67C1373.57 1130.99 1468.8 1230.37 1528.71 1305.09" stroke="white" stroke-opacity="1" stroke-miterlimit="10"/>
<path d="M-186.85 357.033C152.451 472.201 300.362 475.14 367.066 454.449C441.608 431.324 449.153 364.607 497.449 387.847C528.5 402.787 553.534 444 595.791 526.344C724.227 776.569 709.49 818.33 793.57 876.779C913.057 959.586 1025.52 931.087 1221.69 1037.87C1225.96 1040.2 1230.16 1042.51 1234.34 1044.86C1372.39 1122.69 1469.25 1222.99 1530.93 1298.43" stroke="white" stroke-opacity="1" stroke-miterlimit="10"/>
<path d="M-191.352 347.196C138.303 458.636 291.345 466.794 359.71 450.728C435.908 432.817 442.177 369.168 489.423 393.115C519.944 408.582 544.482 449.046 585.237 528.465C709.42 770.347 695.879 813.54 779.699 871.057C900.095 953.673 1012.01 918.513 1211.46 1024.1C1215.84 1026.41 1220.2 1028.72 1224.52 1031.11C1365.48 1109.09 1467.99 1213.47 1533.18 1291.8" stroke="white" stroke-opacity="1" stroke-miterlimit="10"/>
<path d="M-195.876 337.334C124.185 445.054 282.092 458.467 352.336 446.984C430.008 434.284 435.2 373.722 481.375 398.359C511.376 414.365 535.38 454.05 574.666 530.561C694.614 764.129 682.345 808.69 765.812 865.312C887.229 947.678 998.526 905.9 1201.22 1010.3C1205.72 1012.62 1210.22 1014.94 1214.66 1017.32C1358.96 1094.62 1466.69 1203.91 1535.38 1285.13" stroke="white" stroke-opacity="1" stroke-miterlimit="10"/>
<path d="M-200.385 327.491C110.053 431.497 272.567 450.173 344.972 443.257C423.858 435.722 428.253 378.314 473.346 403.626C502.831 420.175 526.311 459.085 564.114 532.68C679.825 757.924 668.833 803.857 751.94 859.585C874.419 941.715 985.091 893.288 1191 996.52C1195.62 998.841 1200.25 1001.17 1204.85 1003.56C1352.26 1080.62 1465.44 1194.39 1537.65 1278.5" stroke="white" stroke-opacity="1" stroke-miterlimit="10"/>
<path d="M-204.893 317.643C95.9288 417.935 262.689 441.865 337.623 439.533C417.359 437.05 421.305 382.904 465.328 408.89C494.304 425.995 517.249 464.115 553.568 534.797C665.052 751.721 655.345 799.021 738.077 853.859C861.614 935.74 971.687 880.651 1180.79 982.75C1185.54 985.069 1190.29 987.385 1195.03 989.806C1345.53 1066.63 1464.2 1184.87 1539.9 1271.87" stroke="white" stroke-opacity="1" stroke-miterlimit="10"/>
<path d="M-209.405 307.812C81.7938 404.38 252.366 433.513 330.247 435.813C410.371 438.178 414.371 387.534 457.282 414.161C485.757 431.829 508.16 469.16 542.995 536.917C650.247 745.519 641.842 794.191 724.189 848.136C848.814 929.778 958.272 867.997 1170.54 968.979C1175.44 971.308 1180.31 973.615 1185.18 976.047C1338.75 1052.64 1462.91 1175.35 1542.12 1265.23" stroke="white" stroke-opacity="1" stroke-miterlimit="10"/>
<path d="M-213.923 297.957C67.6563 390.805 230.232 412.272 322.879 432.076C388.821 426.219 407.427 392.148 449.245 419.413C477.214 437.65 499.086 474.175 532.429 539.033C635.445 739.309 628.345 789.345 710.302 842.406C836.017 923.796 944.87 855.308 1160.3 955.197C1165.31 957.52 1170.33 959.837 1175.35 962.285C1331.99 1038.66 1461.66 1165.83 1544.36 1258.6" stroke="white" stroke-opacity="1" stroke-miterlimit="10"/>
<path d="M-218.439 288.109C53.526 377.24 218.952 402.09 315.514 428.346C380.48 425.697 400.48 396.778 441.209 424.674C468.677 443.487 490.008 479.197 521.87 541.136C620.631 733.077 614.873 784.49 696.432 836.67C823.247 917.802 931.486 842.585 1150.07 941.409C1155.21 943.729 1160.35 946.046 1165.52 948.511C1325.23 1024.69 1460.38 1156.28 1546.61 1251.95" stroke="white" stroke-opacity="1" stroke-miterlimit="10"/>
<path d="M-222.955 278.254C39.3903 363.665 207.665 391.901 308.143 424.607C372.135 425.163 393.529 401.407 433.174 429.927C460.132 449.317 480.932 484.22 511.307 543.239C605.856 726.878 601.405 779.63 682.554 830.928C810.486 911.804 918.095 829.835 1139.84 927.618C1145.1 929.937 1150.38 932.259 1155.69 934.736C1318.46 1010.73 1459.11 1146.74 1548.84 1245.29" stroke="white" stroke-opacity="1" stroke-miterlimit="10"/>
<path d="M-227.461 268.421C25.2694 350.115 196.389 381.732 300.781 420.891C363.798 424.654 386.572 406.063 425.138 435.197C451.582 455.172 471.86 489.263 500.755 545.361C591.071 720.669 587.952 774.784 668.681 825.206C797.737 905.813 904.711 817.078 1129.62 913.846C1135.01 916.164 1140.41 918.491 1145.86 920.977C1311.7 996.798 1457.85 1137.22 1551.09 1238.66" stroke="white" stroke-opacity="1" stroke-miterlimit="10"/>
<path d="M-231.99 258.543C11.1101 336.516 185.104 371.529 293.403 417.143C355.444 424.113 379.587 410.687 417.08 440.435C442.999 460.995 462.763 494.268 490.167 547.454C576.251 714.44 574.471 769.903 654.786 819.46C784.98 899.797 891.292 804.277 1119.36 900.05C1124.88 902.368 1130.4 904.686 1136 907.203C1304.91 982.86 1456.56 1127.68 1553.3 1232.01" stroke="white" stroke-opacity="1" stroke-miterlimit="10"/>
<path d="M-236.487 248.736C-3.00234 322.991 173.821 361.378 286.054 413.444C347.12 423.622 372.613 415.362 409.072 445.731C434.453 466.874 453.709 499.332 479.63 549.603C561.501 708.277 561.049 765.075 640.924 813.761C772.262 893.813 877.899 791.488 1109.15 886.304C1114.79 888.615 1120.46 890.951 1126.21 893.474C1298.18 968.987 1455.33 1118.18 1555.58 1225.4" stroke="white" stroke-opacity="1" stroke-miterlimit="10"/>
<path d="M-240.993 238.883C-17.1419 309.411 162.53 351.183 278.682 409.705C338.768 423.088 365.601 419.988 401.032 450.979C425.869 472.706 444.63 504.347 469.067 551.703C546.687 702.046 547.597 760.196 627.04 808.017C759.537 887.782 864.475 778.626 1098.91 872.508C1104.68 874.817 1110.48 877.159 1116.36 879.688C1291.41 955.056 1454.04 1108.64 1557.82 1218.75" stroke="white" stroke-opacity="1" stroke-miterlimit="10"/>
<path d="M-245.522 229.023C-31.2807 295.835 151.246 340.995 271.314 405.966C330.424 422.556 358.58 424.616 392.991 456.236C417.269 478.541 435.549 509.371 458.479 553.8C531.867 695.821 534.133 755.3 613.137 802.27C746.793 881.735 851.008 765.76 1088.66 858.711C1094.55 861.018 1100.49 863.368 1106.49 865.905C1284.64 941.15 1452.75 1099.09 1560.01 1212.08" stroke="white" stroke-opacity="1" stroke-miterlimit="10"/>
<path d="M-250.039 219.173C-45.4172 282.266 139.959 330.81 263.942 402.232C322.082 422.032 351.54 429.242 384.956 461.491C408.665 484.371 426.47 514.393 447.94 555.92C517.093 689.614 520.714 750.422 599.282 796.548C734.105 875.7 837.58 752.878 1078.44 844.945C1084.46 847.248 1090.53 849.605 1096.7 852.168C1277.91 927.273 1451.5 1089.56 1562.27 1205.44" stroke="white" stroke-opacity="1" stroke-miterlimit="10"/>
<path d="M-254.559 209.313C-59.5528 268.69 128.665 320.621 256.572 398.49C313.711 421.477 344.481 433.854 376.916 466.74C400.04 490.188 417.391 519.409 437.376 558.013C502.297 683.385 507.278 745.514 585.402 790.796C721.398 869.624 824.112 739.953 1068.21 831.137C1074.36 833.434 1080.56 835.801 1086.85 838.362C1271.16 913.389 1450.24 1080.03 1564.5 1198.79" stroke="white" stroke-opacity="1" stroke-miterlimit="10"/>
<path d="M-259.064 199.479C-73.6769 255.137 117.393 310.446 249.212 394.774C305.397 420.984 337.424 438.482 368.883 472.008C391.426 496.017 408.322 524.449 426.816 560.142C487.506 677.189 493.849 740.637 571.525 785.084C708.702 863.585 810.633 727.055 1057.98 817.388C1064.25 819.676 1070.58 822.055 1077.01 824.625C1264.44 899.553 1448.96 1070.52 1566.74 1192.18" stroke="white" stroke-opacity="1" stroke-miterlimit="10"/>
<path d="M-263.575 189.628C-87.8187 241.575 92.4765 320.76 241.848 391.045C297.743 417.346 330.347 443.095 360.849 477.271C382.792 501.842 399.248 529.48 416.259 562.258C472.711 670.984 480.417 735.736 557.647 779.354C696.004 857.495 797.137 714.104 1047.75 803.595C1054.14 805.878 1060.62 808.273 1067.18 810.849C1257.71 885.688 1447.68 1060.97 1568.99 1185.52" stroke="white" stroke-opacity="1" stroke-miterlimit="10"/>
<path d="M-268.092 179.785C-101.934 228.009 88.905 293.104 234.485 387.316C287 421.303 323.257 447.696 352.816 482.533C374.15 507.66 390.171 534.506 405.697 564.371C457.922 664.777 466.985 730.824 543.771 773.622C683.305 851.397 783.622 701.142 1037.52 789.812C1044.04 792.092 1050.65 794.501 1057.35 797.085C1251.06 872.049 1446.43 1051.45 1571.24 1178.89" stroke="white" stroke-opacity="1" stroke-miterlimit="10"/>
<path d="M-272.611 169.938C-116.082 214.436 80.1212 281.141 227.115 383.587C279.255 419.927 316.152 452.293 344.777 487.793C365.492 513.472 381.091 539.536 395.13 566.481C443.123 658.567 453.484 726.026 529.887 767.892C670.724 845.063 769.986 687.952 1027.28 776.033C1033.92 778.297 1040.67 780.725 1047.51 783.318C1244.32 858.118 1445.16 1041.91 1573.46 1172.24" stroke="white" stroke-opacity="1" stroke-miterlimit="10"/>
<path d="M-277.131 160.084C-130.223 200.864 72.2426 269.714 219.74 379.85C442.09 545.887 388.307 692.868 516.01 762.156C661.584 841.143 761.62 666.484 1037.67 769.546C1237.58 844.179 1443.9 1032.39 1575.69 1165.59" stroke="white" stroke-opacity="1" stroke-miterlimit="10"/>
</svg>
