<svg xmlns="http://www.w3.org/2000/svg" fill="none" viewBox="182.9611829944547 179.458 1345.1035120147874 1452.594">
<path stroke-miterlimit="10" stroke="white" d="M138.913 464.615C458.753 620.515 615.215 619.896 699.067 588.792C792.646 554.076 837.71 465.831 880.041 495.107C907.147 513.852 913.721 567.377 918.218 675.995C931.86 1005.37 893.937 1056.31 955.955 1132.71C1042.82 1239.75 1177.29 1213.7 1332.65 1353.4C1446.75 1456 1500.17 1583.29 1527.61 1678.83"/>
<path stroke-miterlimit="10" stroke="white" d="M138.97 452.061C450.216 603.104 609.813 609.106 692.928 583.936C785.81 555.807 827.786 471.453 868.625 501.622C894.881 521.016 901.291 573.581 905.646 678.487C918.906 997.273 881.726 1049.92 943.719 1125.22C1031.95 1231.9 1168.85 1197.55 1328.46 1335.77C1331.94 1338.78 1335.34 1341.77 1338.7 1344.82C1449.66 1445.49 1504.39 1573.97 1533.4 1670.43"/>
<path stroke-miterlimit="10" stroke="white" d="M139.047 439.537C441.674 585.711 604.219 598.399 686.802 579.11C778.85 557.608 817.884 477.12 857.221 508.167C882.633 528.219 888.882 579.829 893.081 681.008C905.932 989.166 869.329 1043.64 931.511 1117.76C1020.83 1224.21 1160.5 1181.42 1324.29 1318.17C1327.89 1321.17 1331.47 1324.16 1334.96 1327.25C1449.02 1428.15 1507.84 1561.89 1539.2 1662.07"/>
<path stroke-miterlimit="10" stroke="white" d="M139.11 426.984C433.17 568.301 598.354 587.716 680.665 574.26C771.68 559.379 807.98 482.782 845.801 514.686C870.375 535.414 876.437 586.028 880.507 683.503C892.952 981.07 857.043 1037.3 919.293 1110.27C1009.85 1216.43 1152.2 1165.25 1320.12 1300.55C1323.85 1303.56 1327.57 1306.56 1331.2 1309.64C1449.24 1409.74 1511.26 1549.77 1544.98 1653.66"/>
<path stroke-miterlimit="10" stroke="white" d="M139.174 414.459C424.635 550.924 592.172 577.075 674.527 569.433C764.251 561.109 798.086 488.493 834.387 521.236C858.125 542.643 864.007 592.268 867.938 686.029C879.981 972.991 844.768 1030.98 907.078 1102.81C998.908 1208.69 1143.94 1149.08 1315.96 1282.95C1319.81 1285.96 1323.68 1288.98 1327.48 1292.08C1449.02 1391.91 1514.71 1537.7 1550.8 1645.31"/>
<path stroke-miterlimit="10" stroke="white" d="M139.246 401.928C416.113 533.543 585.618 566.411 668.405 564.614C756.5 562.698 788.194 494.206 822.99 527.785C845.891 549.888 851.591 598.505 855.379 688.554C867.029 964.917 832.523 1024.65 894.877 1095.36C987.984 1200.93 1135.74 1132.88 1311.8 1265.37C1315.8 1268.38 1319.8 1271.38 1323.74 1274.52C1448.77 1374.1 1518.17 1525.64 1556.6 1636.95"/>
<path stroke-miterlimit="10" stroke="white" d="M139.314 389.4C407.584 516.152 578.608 555.666 662.261 559.778C748.326 564.006 778.307 499.949 811.567 534.322C833.638 557.13 839.147 604.74 842.799 691.063C854.051 956.824 820.268 1018.32 882.653 1087.89C977.068 1193.17 1127.54 1116.64 1307.62 1247.76C1311.77 1250.79 1315.9 1253.78 1319.98 1256.94C1448.47 1356.27 1521.59 1513.56 1562.38 1628.57"/>
<path stroke-miterlimit="10" stroke="white" d="M139.376 376.863C399.053 498.757 565.246 528.442 656.124 554.943C730.903 548.544 768.406 505.694 800.152 540.858C821.385 564.379 826.722 610.96 830.217 693.59C841.068 948.745 808.018 1011.99 870.425 1080.43C966.154 1185.41 1119.36 1100.38 1303.43 1230.17C1307.71 1233.19 1312 1236.2 1316.23 1239.37C1448.17 1338.49 1525.05 1501.5 1568.18 1620.22"/>
<path stroke-miterlimit="10" stroke="white" d="M139.444 364.315C390.531 481.354 558.117 515.366 649.993 550.097C722.086 547.744 758.5 511.438 788.742 547.385C809.136 571.627 814.298 617.168 817.656 696.08C828.091 940.616 795.805 1005.62 858.225 1072.94C955.282 1177.62 1111.22 1084.05 1299.27 1212.54C1303.69 1215.56 1308.12 1218.57 1312.5 1221.77C1447.88 1320.69 1528.49 1489.38 1573.99 1611.82"/>
<path stroke-miterlimit="10" stroke="white" d="M139.509 351.777C382.002 463.958 550.977 502.301 643.855 545.258C713.265 546.948 748.585 517.201 777.33 553.921C796.877 578.886 801.869 623.397 805.085 698.589C815.134 932.548 783.594 999.269 846.013 1065.47C944.417 1169.83 1103.09 1067.71 1295.11 1194.93C1299.66 1197.95 1304.23 1200.97 1308.76 1204.19C1447.57 1302.91 1531.93 1477.29 1579.79 1603.44"/>
<path stroke-miterlimit="10" stroke="white" d="M139.579 339.252C373.482 446.579 543.843 489.247 637.719 540.434C704.444 546.17 738.654 522.983 765.913 560.464C784.605 586.162 789.438 629.637 792.522 701.106C802.175 924.454 771.396 992.919 833.801 1058C933.565 1162.05 1094.97 1051.35 1290.94 1177.33C1295.63 1180.35 1300.35 1183.38 1305.02 1186.61C1447.26 1285.16 1535.38 1465.21 1585.59 1595.07"/>
<path stroke-miterlimit="10" stroke="white" d="M139.643 326.686C364.941 429.153 536.714 476.164 631.578 535.584C695.618 545.366 728.705 528.74 754.486 566.981C772.309 593.411 776.997 635.842 779.929 703.603C789.185 916.349 759.182 986.542 821.575 1050.52C922.714 1154.24 1086.83 1034.95 1286.75 1159.72C1291.59 1162.74 1296.43 1165.76 1301.25 1169.03C1446.92 1267.42 1538.8 1453.12 1591.37 1586.69"/>
<path stroke-miterlimit="10" stroke="white" d="M139.711 314.186C356.418 411.798 529.567 463.124 625.45 530.775C686.805 544.602 718.748 534.537 743.088 573.548C760.031 600.708 764.578 642.1 767.37 706.147C776.244 908.304 747.011 980.209 809.366 1043.08C911.895 1146.46 1078.72 1018.53 1282.59 1142.14C1287.56 1145.16 1292.56 1148.2 1297.54 1151.48C1446.62 1249.74 1542.27 1441.05 1597.19 1578.35"/>
<path stroke-miterlimit="10" stroke="white" d="M139.788 301.643C347.889 394.387 522.427 450.044 619.312 525.928C677.978 543.798 708.77 540.287 731.674 580.071C747.73 607.961 752.151 648.311 754.803 708.644C763.262 900.188 734.828 973.825 797.15 1035.6C901.086 1138.63 1070.6 1002.04 1278.42 1124.52C1283.53 1127.53 1288.67 1130.59 1293.78 1133.88C1446.29 1232 1545.69 1428.95 1603 1569.97"/>
<path stroke-miterlimit="10" stroke="white" d="M139.847 289.09C339.362 376.983 515.294 436.972 613.181 521.081C669.162 542.997 698.783 546.038 720.258 586.603C735.413 615.217 739.722 654.532 742.212 711.137C750.274 892.079 722.645 967.419 784.918 1028.11C890.27 1130.77 1062.45 985.547 1274.23 1106.89C1279.49 1109.91 1284.76 1112.97 1290.02 1116.28C1445.95 1214.29 1549.12 1416.85 1608.76 1561.56"/>
<path stroke-miterlimit="10" stroke="white" d="M139.908 276.557C330.829 359.592 508.152 423.91 607.039 516.247C660.338 542.212 688.771 551.795 708.846 593.139C723.089 622.473 727.288 660.758 729.658 713.666C737.321 884 710.496 961.044 772.721 1020.65C879.501 1122.95 1054.34 969.037 1270.07 1089.31C1275.46 1092.32 1280.87 1095.4 1286.3 1098.74C1445.64 1196.62 1552.57 1404.77 1614.58 1553.19"/>
<path stroke-miterlimit="10" stroke="white" d="M139.974 263.998C322.304 342.181 501.008 410.83 600.906 511.391C651.502 541.375 678.75 557.519 697.434 599.656C710.752 629.699 714.862 666.963 717.094 716.148C724.359 875.88 698.346 954.618 760.516 1013.15C868.737 1115.05 1046.21 952.46 1265.92 1071.67C1271.45 1074.67 1277 1077.76 1282.55 1081.1C1445.32 1178.94 1556.03 1392.68 1620.37 1544.8"/>
<path stroke-miterlimit="10" stroke="white" d="M140.048 251.473C313.784 324.798 493.885 397.77 594.775 506.567C642.701 540.617 668.726 563.265 686.023 606.197C698.425 636.942 702.44 673.199 704.52 718.675C711.39 867.803 686.193 948.231 748.297 1005.7C857.97 1107.2 1038.06 935.918 1261.74 1054.1C1267.41 1057.09 1273.1 1060.2 1278.8 1063.56C1445 1161.31 1559.46 1380.61 1626.16 1536.46"/>
<path stroke-miterlimit="10" stroke="white" d="M140.116 238.938C305.241 307.416 461.526 410.451 588.637 501.74C636.203 535.9 658.682 569.003 674.607 612.744C686.072 644.191 690.008 679.436 691.948 721.199C698.413 859.725 674.041 941.825 736.079 998.241C847.219 1099.31 1029.92 919.319 1257.57 1036.49C1263.38 1039.47 1269.22 1042.61 1275.06 1045.97C1444.69 1143.66 1562.89 1368.5 1631.97 1528.07"/>
<path stroke-miterlimit="10" stroke="white" d="M140.181 226.402C296.737 290.018 471.634 375.376 582.509 496.9C622.504 540.74 648.636 574.715 663.199 619.276C673.719 651.419 677.583 685.655 679.381 723.705C685.452 851.633 661.902 935.394 723.87 990.765C836.478 1091.38 1021.76 902.695 1253.4 1018.87C1259.35 1021.86 1265.33 1025.01 1271.32 1028.39C1444.35 1126.28 1566.34 1356.43 1637.78 1519.71"/>
<path stroke-miterlimit="10" stroke="white" d="M140.241 213.864C288.195 272.615 468.12 360.093 576.368 492.065C614.764 538.878 638.571 580.425 651.781 625.812C661.348 658.643 665.148 691.883 666.803 726.215C672.475 843.542 649.624 929.112 711.648 983.295C825.98 1083.17 1013.58 885.784 1249.23 1001.27C1255.31 1004.24 1261.43 1007.41 1267.57 1010.8C1444.06 1108.54 1569.78 1344.34 1643.57 1511.32"/>
<path stroke-miterlimit="10" stroke="white" d="M140.301 201.33C279.659 255.225 465.319 345.516 570.223 487.231C728.362 700.875 595.416 886.137 699.433 975.831C818.007 1078.08 1015.33 858.487 1263.82 993.227C1443.77 1090.8 1573.23 1332.27 1649.36 1502.95"/>
</svg>